<?xml version="1.0" encoding="UTF-8"?>
<!DOCTYPE svg PUBLIC "-//W3C//DTD SVG 1.1//EN" "http://www.w3.org/Graphics/SVG/1.1/DTD/svg11.dtd">
<svg xmlns="http://www.w3.org/2000/svg" version="1.1" width="751px" height="282px" style="shape-rendering:geometricPrecision; text-rendering:geometricPrecision; image-rendering:optimizeQuality; fill-rule:evenodd; clip-rule:evenodd" xmlns:xlink="http://www.w3.org/1999/xlink">
<g><path style="opacity:0.912" fill="#fefffe" d="M 148.5,28.5 C 149.822,28.33 150.989,28.6634 152,29.5C 157.89,44.9463 164.057,60.2796 170.5,75.5C 171.333,75.8333 172.167,76.1667 173,76.5C 196.981,70.6552 221.147,69.4886 245.5,73C 261.105,78.5562 263.605,87.7228 253,100.5C 242.579,111.259 230.745,120.092 217.5,127C 168.909,152.641 117.242,167.974 62.5,173C 53.4718,173.606 44.4718,173.273 35.5,172C 15.5893,167.418 12.0893,157.252 25,141.5C 35.8631,131.652 47.6964,123.152 60.5,116C 74.565,108.969 88.8983,102.469 103.5,96.5C 119.007,74.148 134.007,51.4813 148.5,28.5 Z M 98.5,104.5 C 88.4255,120.31 78.0921,135.976 67.5,151.5C 82.6815,151.639 97.6815,149.806 112.5,146C 121.723,132.376 131.056,118.876 140.5,105.5C 144.634,115.226 148.967,124.892 153.5,134.5C 165.683,130.448 177.35,125.448 188.5,119.5C 183.844,106.696 178.511,94.1963 172.5,82C 187.981,78.5624 203.648,77.229 219.5,78C 224.017,78.2632 228.351,79.2632 232.5,81C 237.501,85.5705 237.667,90.4039 233,95.5C 218.621,109.189 202.121,119.689 183.5,127C 149.631,141.968 114.298,151.634 77.5,156C 67.4483,156.865 57.4483,156.531 47.5,155C 42.0284,154.28 38.6951,151.28 37.5,146C 40.7547,139.149 45.4214,133.483 51.5,129C 66.3183,119.257 81.985,111.09 98.5,104.5 Z"/></g>
<g><path style="opacity:0.941" fill="#fefffe" d="M 476.5,127.5 C 483.863,127.169 491.197,127.503 498.5,128.5C 496.911,134.112 495.578,139.778 494.5,145.5C 500.842,145.334 507.175,145.5 513.5,146C 511.929,150.351 510.929,154.851 510.5,159.5C 503.91,159.189 497.41,159.522 491,160.5C 487.706,171.661 485.706,182.994 485,194.5C 486.822,196.045 488.989,196.712 491.5,196.5C 494.841,196.164 498.175,195.831 501.5,195.5C 500.83,199.851 499.996,204.184 499,208.5C 497.933,209.191 496.766,209.691 495.5,210C 487.686,211.202 480.02,211.202 472.5,210C 465.426,208.384 461.759,203.884 461.5,196.5C 464.008,184.135 466.675,171.801 469.5,159.5C 466.833,159.5 464.167,159.5 461.5,159.5C 462.026,155.064 463.026,150.731 464.5,146.5C 467.366,145.792 470.2,145.125 473,144.5C 474.617,138.914 475.784,133.247 476.5,127.5 Z"/></g>
<g><path style="opacity:0.941" fill="#fefffe" d="M 38.5,194.5 C 42.601,189.156 46.601,183.656 50.5,178C 101.452,174.929 150.119,162.762 196.5,141.5C 208.574,167.658 219.574,194.325 229.5,221.5C 215.829,221.667 202.163,221.5 188.5,221C 185.129,212.394 181.463,203.894 177.5,195.5C 145.172,194.333 112.838,194.167 80.5,195C 75.0821,203.838 69.4155,212.504 63.5,221C 49.8212,221.833 36.1545,221.666 22.5,220.5C 27.8554,211.777 33.1888,203.111 38.5,194.5 Z"/></g>
<g><path style="opacity:0.946" fill="#fefffe" d="M 291.5,143.5 C 309.965,140.311 319.298,147.978 319.5,166.5C 319.225,185.568 310.892,199.735 294.5,209C 285.136,211.875 275.802,211.375 266.5,207.5C 264.119,215.402 262.119,223.402 260.5,231.5C 253.5,231.5 246.5,231.5 239.5,231.5C 245.577,202.782 251.91,174.115 258.5,145.5C 265.841,145.334 273.174,145.5 280.5,146C 279.446,147.388 279.28,148.888 280,150.5C 283.514,147.5 287.347,145.167 291.5,143.5 Z M 282.5,159.5 C 292.149,157.138 297.149,160.804 297.5,170.5C 297.283,179.43 293.95,186.93 287.5,193C 282.092,195.444 276.426,196.11 270.5,195C 269.919,194.107 269.585,193.107 269.5,192C 271.667,182.5 273.833,173 276,163.5C 278.173,162.067 280.34,160.734 282.5,159.5 Z"/></g>
<g><path style="opacity:0.932" fill="#fefffe" d="M 357.5,143.5 C 364.508,143.334 371.508,143.5 378.5,144C 387.479,145.647 393.313,150.814 396,159.5C 397.125,166.939 396.292,174.106 393.5,181C 378.17,181.5 362.837,181.667 347.5,181.5C 347.181,188.684 350.515,193.184 357.5,195C 367.48,196.796 376.813,195.129 385.5,190C 387.134,189.506 388.801,189.34 390.5,189.5C 389.91,194.95 388.743,200.283 387,205.5C 378.406,209.399 369.406,211.399 360,211.5C 331.386,209.869 321.052,195.202 329,167.5C 334.68,154.917 344.18,146.917 357.5,143.5 Z M 359.5,157.5 C 363.967,157.133 368.3,157.633 372.5,159C 375.029,161.642 376.029,164.808 375.5,168.5C 366.808,168.831 358.141,168.498 349.5,167.5C 351.882,163.118 355.216,159.784 359.5,157.5 Z"/></g>
<g><path style="opacity:0.932" fill="#fefffe" d="M 681.5,143.5 C 688.508,143.334 695.508,143.5 702.5,144C 711.479,145.647 717.313,150.814 720,159.5C 721.125,166.939 720.292,174.106 717.5,181C 702.17,181.5 686.837,181.667 671.5,181.5C 671.181,188.684 674.515,193.184 681.5,195C 691.48,196.796 700.813,195.129 709.5,190C 711.134,189.506 712.801,189.34 714.5,189.5C 713.91,194.95 712.743,200.283 711,205.5C 702.406,209.399 693.406,211.399 684,211.5C 655.386,209.869 645.052,195.202 653,167.5C 658.68,154.917 668.18,146.917 681.5,143.5 Z M 683.5,157.5 C 687.967,157.133 692.3,157.633 696.5,159C 699.029,161.642 700.029,164.808 699.5,168.5C 690.808,168.831 682.141,168.498 673.5,167.5C 675.882,163.118 679.216,159.784 683.5,157.5 Z"/></g>
<g><path style="opacity:0.931" fill="#fefffe" d="M 414.5,145.5 C 421.841,145.334 429.174,145.5 436.5,146C 435.833,148 435.167,150 434.5,152C 439.025,150.082 443.692,148.082 448.5,146C 452.821,145.501 457.154,145.334 461.5,145.5C 460.167,152.5 458.833,159.5 457.5,166.5C 449.137,165.039 440.804,165.205 432.5,167C 432,167.5 431.5,168 431,168.5C 428.023,181.888 424.856,195.222 421.5,208.5C 414.532,209.497 407.532,209.83 400.5,209.5C 405.039,188.14 409.705,166.806 414.5,145.5 Z"/></g>
<g><path style="opacity:0.939" fill="#fefffe" d="M 524.5,145.5 C 531.5,145.5 538.5,145.5 545.5,145.5C 542.582,159.34 539.582,173.174 536.5,187C 536.948,191.952 539.615,194.118 544.5,193.5C 549.091,193.47 553.258,192.136 557,189.5C 560.461,175.196 563.794,160.862 567,146.5C 574.079,145.52 581.245,145.187 588.5,145.5C 583.833,166.833 579.167,188.167 574.5,209.5C 567.137,209.831 559.803,209.497 552.5,208.5C 553.485,206.902 553.651,205.235 553,203.5C 543.277,210.647 532.777,212.48 521.5,209C 515.847,205.66 513.181,200.66 513.5,194C 516.599,177.667 520.266,161.5 524.5,145.5 Z"/></g>
<g><path style="opacity:0.931" fill="#fefffe" d="M 605.5,145.5 C 612.841,145.334 620.174,145.5 627.5,146C 626.833,148 626.167,150 625.5,152C 630.025,150.082 634.692,148.082 639.5,146C 643.821,145.501 648.154,145.334 652.5,145.5C 651.167,152.5 649.833,159.5 648.5,166.5C 640.137,165.039 631.804,165.205 623.5,167C 623,167.5 622.5,168 622,168.5C 619.023,181.888 615.856,195.222 612.5,208.5C 605.532,209.497 598.532,209.83 591.5,209.5C 596.039,188.14 600.705,166.806 605.5,145.5 Z"/></g>
<g><path style="opacity:0.004" fill="#fefffe" d="M 38.5,194.5 C 37.8333,193.167 37.8333,193.167 38.5,194.5 Z"/></g>
</svg>
