<?xml version="1.0" standalone="no"?>
<!DOCTYPE svg PUBLIC "-//W3C//DTD SVG 20010904//EN"
 "http://www.w3.org/TR/2001/REC-SVG-20010904/DTD/svg10.dtd">
<svg version="1.0" xmlns="http://www.w3.org/2000/svg"
 width="301.000000pt" height="266.000000pt" viewBox="0 0 301.000000 266.000000"
 preserveAspectRatio="xMidYMid meet">

<g transform="translate(0.000000,266.000000) scale(0.100000,-0.100000)"
fill="#000000" stroke="none">
<path d="M1478 2027 l-226 -342 -159 -68 c-335 -143 -588 -310 -675 -446 -32
-51 -37 -113 -12 -149 51 -73 291 -112 501 -82 38 5 122 16 188 25 179 24 526
111 645 162 25 11 60 23 78 26 64 13 297 111 457 191 324 165 514 330 515 448
0 16 -12 41 -31 63 -82 93 -354 110 -732 44 -65 -12 -119 -19 -121 -17 -1 1
-44 107 -95 233 -52 127 -96 235 -100 242 -3 6 -107 -140 -233 -330z m1017
-161 c114 -49 113 -107 -2 -218 -216 -205 -816 -447 -1341 -539 -151 -27 -422
-33 -484 -11 -63 22 -88 48 -88 91 0 77 116 184 320 298 76 42 302 145 307
140 2 -3 -66 -111 -153 -241 -86 -130 -154 -239 -151 -243 8 -8 180 13 314 38
l111 21 134 200 c73 110 136 206 141 212 10 16 19 -1 78 -149 29 -71 55 -133
58 -137 6 -7 248 84 310 117 l30 15 -75 182 c-41 101 -76 187 -77 192 -5 25
232 56 398 52 94 -2 141 -8 170 -20z"/>
<path d="M2137 1214 c-49 -26 -308 -125 -422 -161 -343 -108 -732 -183 -950
-183 l-53 0 -119 -182 c-66 -101 -127 -195 -137 -210 l-18 -28 198 0 199 1 87
134 87 135 489 0 489 0 54 -132 54 -133 198 -3 c108 -1 197 -1 197 1 0 10
-311 762 -318 768 -4 4 -20 1 -35 -7z"/>
</g>
</svg>
