<svg version="1.1" id="Layer_1" xmlns="http://www.w3.org/2000/svg" xmlns:xlink="http://www.w3.org/1999/xlink" x="0px" y="0px"
	 width="100%" viewBox="0 0 751 282" enable-background="new 0 0 751 282" xml:space="preserve">
<path fill="#FEFEFE" opacity="1.000000" stroke="none" 
	d="
M474.000000,283.000000 
	C316.038086,283.000000 158.576172,283.000000 1.057129,283.000000 
	C1.057129,189.060852 1.057129,95.121651 1.057129,1.091225 
	C251.211945,1.091225 501.423950,1.091225 751.817993,1.091225 
	C751.817993,94.999718 751.817993,188.999832 751.817993,283.000000 
	C659.454895,283.000000 566.977478,283.000000 474.000000,283.000000 
M436.024139,155.035202 
	C436.024139,155.035202 436.062225,155.100464 435.534180,154.372131 
	C435.989380,152.015457 436.444611,149.658798 436.928558,147.153397 
	C430.076263,147.153397 423.627960,147.153397 416.860596,147.153397 
	C412.054657,168.015656 407.267303,188.797134 402.425323,209.815796 
	C409.496643,209.815796 415.934784,209.815796 422.612366,209.815796 
	C425.469360,197.411819 428.446289,185.187836 431.021576,172.879807 
	C431.794434,169.186035 433.505737,167.309174 437.101379,167.096909 
	C443.987366,166.690414 450.878571,166.372421 458.373779,165.986496 
	C459.627625,160.392517 461.061951,153.993393 462.666595,146.834488 
	C459.003235,147.118042 455.857666,146.747360 453.178223,147.694824 
	C447.319305,149.766541 441.697083,152.507584 436.024139,155.035202 
M627.024292,155.035248 
	C627.024292,155.035248 627.062439,155.100510 626.534119,154.372314 
	C626.989380,152.015625 627.444641,149.658936 627.928650,147.153290 
	C621.076416,147.153290 614.628052,147.153290 607.860413,147.153290 
	C603.054443,168.015457 598.267090,188.796997 593.425110,209.815887 
	C600.496399,209.815887 606.934570,209.815887 613.612305,209.815887 
	C616.469299,197.412079 619.446228,185.188110 622.021606,172.880127 
	C622.794373,169.186508 624.505127,167.309204 628.101074,167.096954 
	C634.987061,166.690506 641.878296,166.372467 649.373779,165.986511 
	C650.627808,160.391968 652.062134,153.992996 653.666748,146.834579 
	C650.003479,147.118073 646.857910,146.747284 644.178467,147.694763 
	C638.319519,149.766495 632.697327,152.507584 627.024292,155.035248 
M85.105019,171.677338 
	C113.473190,168.121460 140.722153,160.039780 167.465576,150.377365 
	C181.986755,145.130859 196.157043,138.745789 210.057785,131.993530 
	C225.960526,124.268791 241.330170,115.401413 253.294373,101.963013 
	C264.748749,89.097244 261.568237,78.172707 244.694717,75.260544 
	C233.182709,73.273705 221.159454,73.135094 209.445251,73.736847 
	C196.893433,74.381622 184.435944,76.862427 171.711044,78.572334 
	C165.131973,62.561699 158.501678,46.426395 151.677322,29.818853 
	C150.401459,31.636772 149.422577,32.962612 148.514740,34.335426 
	C135.562454,53.921478 122.551208,73.469231 109.734550,93.143715 
	C107.271225,96.925079 104.359009,99.404793 100.079514,101.096344 
	C78.666786,109.560112 57.767277,119.179466 39.377865,133.260391 
	C33.242802,137.958054 27.474218,143.546585 22.856524,149.714859 
	C16.303204,158.468735 19.032368,166.657349 29.383602,170.109909 
	C35.769417,172.239838 42.698208,173.712372 49.390118,173.738876 
	C60.988625,173.784805 72.592484,172.479538 85.105019,171.677338 
M43.636261,193.088104 
	C37.335945,202.618271 31.035631,212.148438 24.175486,222.525436 
	C37.509518,222.525436 49.925240,222.609116 62.335808,222.394608 
	C63.562485,222.373428 65.066757,220.739120 65.916245,219.494553 
	C70.701019,212.484421 75.409828,205.418350 79.955177,198.251251 
	C81.447388,195.898346 83.073563,194.922104 85.960739,194.933395 
	C115.935097,195.050522 145.910248,195.051483 175.884613,194.938858 
	C178.695892,194.928314 180.009277,195.803757 180.987823,198.382584 
	C183.643570,205.381393 186.505371,212.306152 189.478394,219.176788 
	C190.046448,220.489594 191.479797,222.364365 192.542847,222.383621 
	C204.962219,222.608475 217.387146,222.527695 230.571136,222.527695 
	C219.691147,195.931702 209.103683,170.050797 198.716385,144.659180 
	C182.910599,150.428864 167.922180,156.317413 152.660065,161.381027 
	C124.462639,170.736252 95.659050,178.077789 65.895103,179.149994 
	C54.954197,179.544159 48.198021,182.882553 43.636261,193.088104 
M269.554199,146.995453 
	C266.756256,146.995453 263.958344,146.995453 260.934631,146.995453 
	C254.292557,175.734299 247.718597,204.178421 241.093704,232.842865 
	C247.863708,232.842865 254.330978,232.842865 261.181519,232.842865 
	C263.156647,224.584045 265.141296,216.285309 267.148590,207.891876 
	C281.476593,214.311417 294.604675,213.818970 305.954224,202.938141 
	C318.125000,191.269974 322.297668,176.597900 319.907806,160.136230 
	C318.703064,151.837845 312.930328,145.945175 304.578430,145.495026 
	C299.193359,145.204803 293.593994,147.016586 288.256287,148.487289 
	C285.450409,149.260406 283.000519,151.325333 279.891205,153.089935 
	C280.277161,150.633362 280.544739,148.930405 280.848785,146.995453 
	C277.167877,146.995453 273.845886,146.995453 269.554199,146.995453 
M710.202942,148.085403 
	C706.508179,147.151901 702.862732,145.860107 699.110535,145.343887 
	C677.147766,142.322220 658.251099,154.602631 653.378723,174.875046 
	C649.017273,193.021515 656.181885,206.241470 672.961853,210.437119 
	C685.456726,213.561325 697.758484,212.064117 709.750305,207.751602 
	C710.920715,207.330688 712.213257,205.944336 712.552734,204.751114 
	C713.803894,200.352554 714.678040,195.846695 715.949951,190.256073 
	C713.441101,191.427826 711.860840,192.130157 710.311646,192.895370 
	C701.585999,197.205338 692.544556,199.552597 682.817078,197.052811 
	C675.286011,195.117462 671.961914,190.426178 672.256165,182.124878 
	C687.695740,182.124878 703.152954,182.124878 718.464905,182.124878 
	C724.719604,167.253738 721.897522,155.063553 710.202942,148.085403 
M339.821014,206.799423 
	C355.009552,214.559235 370.418182,212.859344 385.840973,207.711853 
	C386.993713,207.327087 388.243927,205.864685 388.583801,204.659348 
	C389.821716,200.269241 390.692078,195.775528 391.929474,190.311996 
	C389.250397,191.526093 387.474060,192.263046 385.757782,193.120316 
	C377.005554,197.491928 367.901123,199.532349 358.231018,196.929230 
	C351.156342,195.024750 347.850159,189.987732 348.355621,182.085999 
	C363.789612,182.085999 379.250153,182.085999 395.366058,182.085999 
	C396.141754,177.140991 397.373901,172.431747 397.526093,167.687881 
	C397.889130,156.373947 392.152557,149.158707 381.162598,146.353806 
	C379.233643,145.861481 377.241699,145.586990 375.264496,145.316910 
	C353.296692,142.316162 334.155670,154.413971 329.513031,174.758072 
	C326.736847,186.923309 327.581573,198.420975 339.821014,206.799423 
M545.605042,195.967361 
	C538.972961,195.331223 537.572937,193.953247 538.006226,187.600998 
	C538.230957,184.306366 538.967957,181.028290 539.682617,177.788849 
	C541.920715,167.644485 544.258118,157.522018 546.578491,147.296387 
	C539.376831,147.296387 532.791199,147.296387 526.217957,147.296387 
	C522.882996,161.841202 519.415405,176.057556 516.399841,190.369156 
	C513.330811,204.934204 522.496887,214.394714 537.172424,211.600647 
	C542.114563,210.659729 546.745056,208.018204 551.469788,206.038971 
	C552.891113,205.443558 554.150085,204.460373 556.152954,203.250320 
	C555.722351,206.056366 555.437927,207.909576 555.142578,209.834198 
	C561.971313,209.834198 568.422058,209.834198 575.176086,209.834198 
	C579.986450,188.942505 584.769226,168.170853 589.590576,147.231522 
	C582.367249,147.231522 575.914124,147.231522 569.337463,147.231522 
	C566.165222,161.013321 563.160583,174.630386 559.778809,188.153122 
	C559.270020,190.187454 557.342651,192.440536 555.461060,193.421326 
	C552.752563,194.833206 549.484375,195.171600 545.605042,195.967361 
M470.195801,209.519745 
	C479.213654,213.382492 488.452057,212.140167 497.669281,210.584000 
	C498.558807,210.433823 499.751617,209.411270 499.994690,208.562134 
	C501.056519,204.852478 501.819794,201.057343 502.686462,197.314636 
	C498.572571,197.909927 495.013367,198.743179 491.430725,198.860306 
	C487.247559,198.997086 484.437531,196.569885 485.224274,192.336182 
	C487.237457,181.502350 489.774780,170.765915 492.109253,159.959045 
	C498.853180,159.959045 504.825775,159.959045 511.000275,159.959045 
	C512.033325,155.657974 513.028809,151.513260 514.163330,146.789551 
	C507.676880,146.789551 501.648499,146.789551 495.332214,146.789551 
	C496.677094,140.631134 497.903595,135.014877 499.181488,129.163239 
	C492.330048,129.163239 485.873322,129.163239 479.184540,129.163239 
	C477.759277,135.073074 476.337769,140.967316 474.843109,147.164825 
	C471.942200,147.164825 469.348206,147.164825 466.605347,147.164825 
	C465.591492,151.516861 464.659241,155.518677 463.666595,159.779602 
	C466.563904,159.955673 469.131012,160.111679 471.843140,160.276505 
	C469.288971,171.767242 466.672821,182.908615 464.378448,194.115875 
	C463.179199,199.973892 464.036835,205.429276 470.195801,209.519745 
z"/>
<path fill="#2C2C2C" opacity="1.000000" stroke="none" 
	d="
M84.649551,171.709152 
	C72.592484,172.479538 60.988625,173.784805 49.390118,173.738876 
	C42.698208,173.712372 35.769417,172.239838 29.383602,170.109909 
	C19.032368,166.657349 16.303204,158.468735 22.856524,149.714859 
	C27.474218,143.546585 33.242802,137.958054 39.377865,133.260391 
	C57.767277,119.179466 78.666786,109.560112 100.079514,101.096344 
	C104.359009,99.404793 107.271225,96.925079 109.734550,93.143715 
	C122.551208,73.469231 135.562454,53.921478 148.514740,34.335426 
	C149.422577,32.962612 150.401459,31.636772 151.677322,29.818853 
	C158.501678,46.426395 165.131973,62.561699 171.711044,78.572334 
	C184.435944,76.862427 196.893433,74.381622 209.445251,73.736847 
	C221.159454,73.135094 233.182709,73.273705 244.694717,75.260544 
	C261.568237,78.172707 264.748749,89.097244 253.294373,101.963013 
	C241.330170,115.401413 225.960526,124.268791 210.057785,131.993530 
	C196.157043,138.745789 181.986755,145.130859 167.465576,150.377365 
	C140.722153,160.039780 113.473190,168.121460 84.649551,171.709152 
M213.409668,78.098755 
	C199.971390,78.099976 186.753006,79.740570 173.407471,82.776131 
	C178.759628,95.898315 183.833420,108.337959 189.216690,121.536423 
	C177.754150,126.130585 166.602234,130.600250 155.106277,135.207809 
	C150.734848,124.603714 146.661758,114.723297 142.331879,104.219994 
	C140.944992,106.192589 139.980698,107.494850 139.088150,108.844551 
	C131.466232,120.370384 123.880348,131.920197 116.213211,143.415817 
	C115.328072,144.742935 114.161621,146.595261 112.873871,146.831436 
	C99.051651,149.366348 85.178772,151.625092 71.319778,153.959488 
	C71.072395,153.406998 70.825020,152.854507 70.577637,152.302017 
	C81.036629,136.462158 91.495613,120.622299 102.737503,103.596764 
	C82.295708,112.276878 63.420406,120.781181 47.433247,134.489441 
	C45.798828,135.890884 44.319736,137.508896 42.945805,139.172760 
	C35.848072,147.768295 37.737873,154.923126 48.643566,156.920975 
	C57.535061,158.549850 66.878159,159.000519 75.906624,158.360397 
	C106.530708,156.189133 135.839737,147.919678 164.519760,137.375183 
	C185.177475,129.780151 205.389984,121.100502 223.249878,107.969498 
	C228.268585,104.279648 232.877289,99.698929 236.662720,94.752823 
	C240.980194,89.111572 239.214600,83.527336 232.428650,81.325989 
	C226.666382,79.456718 220.407669,79.117859 213.409668,78.098755 
z"/>
<path fill="#2B2B2B" opacity="1.000000" stroke="none" 
	d="
M43.832397,192.783127 
	C48.198021,182.882553 54.954197,179.544159 65.895103,179.149994 
	C95.659050,178.077789 124.462639,170.736252 152.660065,161.381027 
	C167.922180,156.317413 182.910599,150.428864 198.716385,144.659180 
	C209.103683,170.050797 219.691147,195.931702 230.571136,222.527695 
	C217.387146,222.527695 204.962219,222.608475 192.542847,222.383621 
	C191.479797,222.364365 190.046448,220.489594 189.478394,219.176788 
	C186.505371,212.306152 183.643570,205.381393 180.987823,198.382584 
	C180.009277,195.803757 178.695892,194.928314 175.884613,194.938858 
	C145.910248,195.051483 115.935097,195.050522 85.960739,194.933395 
	C83.073563,194.922104 81.447388,195.898346 79.955177,198.251251 
	C75.409828,205.418350 70.701019,212.484421 65.916245,219.494553 
	C65.066757,220.739120 63.562485,222.373428 62.335808,222.394608 
	C49.925240,222.609116 37.509518,222.525436 24.175486,222.525436 
	C31.035631,212.148438 37.335945,202.618271 43.832397,192.783127 
z"/>
<path fill="#2A2A2A" opacity="1.000000" stroke="none" 
	d="
M270.039062,146.995453 
	C273.845886,146.995453 277.167877,146.995453 280.848785,146.995453 
	C280.544739,148.930405 280.277161,150.633362 279.891205,153.089935 
	C283.000519,151.325333 285.450409,149.260406 288.256287,148.487289 
	C293.593994,147.016586 299.193359,145.204803 304.578430,145.495026 
	C312.930328,145.945175 318.703064,151.837845 319.907806,160.136230 
	C322.297668,176.597900 318.125000,191.269974 305.954224,202.938141 
	C294.604675,213.818970 281.476593,214.311417 267.148590,207.891876 
	C265.141296,216.285309 263.156647,224.584045 261.181519,232.842865 
	C254.330978,232.842865 247.863708,232.842865 241.093704,232.842865 
	C247.718597,204.178421 254.292557,175.734299 260.934631,146.995453 
	C263.958344,146.995453 266.756256,146.995453 270.039062,146.995453 
M287.325439,196.069275 
	C298.479614,190.687393 300.666565,174.226288 298.744446,165.988754 
	C297.791382,161.904297 294.643829,160.107208 290.567139,160.053543 
	C285.346924,159.984802 279.007721,160.211380 277.231293,165.399551 
	C273.827301,175.341461 272.143097,185.872223 269.719482,196.269257 
	C275.706970,198.539429 281.161346,198.682159 287.325439,196.069275 
z"/>
<path fill="#2B2B2B" opacity="1.000000" stroke="none" 
	d="
M710.542725,148.251923 
	C721.897522,155.063553 724.719604,167.253738 718.464905,182.124878 
	C703.152954,182.124878 687.695740,182.124878 672.256165,182.124878 
	C671.961914,190.426178 675.286011,195.117462 682.817078,197.052811 
	C692.544556,199.552597 701.585999,197.205338 710.311646,192.895370 
	C711.860840,192.130157 713.441101,191.427826 715.949951,190.256073 
	C714.678040,195.846695 713.803894,200.352554 712.552734,204.751114 
	C712.213257,205.944336 710.920715,207.330688 709.750305,207.751602 
	C697.758484,212.064117 685.456726,213.561325 672.961853,210.437119 
	C656.181885,206.241470 649.017273,193.021515 653.378723,174.875046 
	C658.251099,154.602631 677.147766,142.322220 699.110535,145.343887 
	C702.862732,145.860107 706.508179,147.151901 710.542725,148.251923 
M701.692810,165.897720 
	C701.256165,161.745987 698.851013,159.335327 694.917969,158.342789 
	C686.106445,156.119156 677.810974,160.712723 674.416138,170.001358 
	C682.781799,170.001358 691.000427,170.099609 699.209106,169.857513 
	C700.081787,169.831787 700.895752,167.813644 701.692810,165.897720 
z"/>
<path fill="#2B2B2B" opacity="1.000000" stroke="none" 
	d="
M339.520905,206.586365 
	C327.581573,198.420975 326.736847,186.923309 329.513031,174.758072 
	C334.155670,154.413971 353.296692,142.316162 375.264496,145.316910 
	C377.241699,145.586990 379.233643,145.861481 381.162598,146.353806 
	C392.152557,149.158707 397.889130,156.373947 397.526093,167.687881 
	C397.373901,172.431747 396.141754,177.140991 395.366058,182.085999 
	C379.250153,182.085999 363.789612,182.085999 348.355621,182.085999 
	C347.850159,189.987732 351.156342,195.024750 358.231018,196.929230 
	C367.901123,199.532349 377.005554,197.491928 385.757782,193.120316 
	C387.474060,192.263046 389.250397,191.526093 391.929474,190.311996 
	C390.692078,195.775528 389.821716,200.269241 388.583801,204.659348 
	C388.243927,205.864685 386.993713,207.327087 385.840973,207.711853 
	C370.418182,212.859344 355.009552,214.559235 339.520905,206.586365 
M357.293091,160.568756 
	C354.771698,163.390884 352.250336,166.212997 349.169250,169.661560 
	C359.533142,169.661560 368.394318,169.661560 377.191254,169.661560 
	C378.298035,162.249435 375.377441,158.193207 368.480835,158.172882 
	C364.964142,158.162521 361.443634,159.447769 357.293091,160.568756 
z"/>
<path fill="#2A2A2A" opacity="1.000000" stroke="none" 
	d="
M546.030029,195.967743 
	C549.484375,195.171600 552.752563,194.833206 555.461060,193.421326 
	C557.342651,192.440536 559.270020,190.187454 559.778809,188.153122 
	C563.160583,174.630386 566.165222,161.013321 569.337463,147.231522 
	C575.914124,147.231522 582.367249,147.231522 589.590576,147.231522 
	C584.769226,168.170853 579.986450,188.942505 575.176086,209.834198 
	C568.422058,209.834198 561.971313,209.834198 555.142578,209.834198 
	C555.437927,207.909576 555.722351,206.056366 556.152954,203.250320 
	C554.150085,204.460373 552.891113,205.443558 551.469788,206.038971 
	C546.745056,208.018204 542.114563,210.659729 537.172424,211.600647 
	C522.496887,214.394714 513.330811,204.934204 516.399841,190.369156 
	C519.415405,176.057556 522.882996,161.841202 526.217957,147.296387 
	C532.791199,147.296387 539.376831,147.296387 546.578491,147.296387 
	C544.258118,157.522018 541.920715,167.644485 539.682617,177.788849 
	C538.967957,181.028290 538.230957,184.306366 538.006226,187.600998 
	C537.572937,193.953247 538.972961,195.331223 546.030029,195.967743 
z"/>
<path fill="#2A2A2A" opacity="1.000000" stroke="none" 
	d="
M469.870911,209.323090 
	C464.036835,205.429276 463.179199,199.973892 464.378448,194.115875 
	C466.672821,182.908615 469.288971,171.767242 471.843140,160.276505 
	C469.131012,160.111679 466.563904,159.955673 463.666595,159.779602 
	C464.659241,155.518677 465.591492,151.516861 466.605347,147.164825 
	C469.348206,147.164825 471.942200,147.164825 474.843109,147.164825 
	C476.337769,140.967316 477.759277,135.073074 479.184540,129.163239 
	C485.873322,129.163239 492.330048,129.163239 499.181488,129.163239 
	C497.903595,135.014877 496.677094,140.631134 495.332214,146.789551 
	C501.648499,146.789551 507.676880,146.789551 514.163330,146.789551 
	C513.028809,151.513260 512.033325,155.657974 511.000275,159.959045 
	C504.825775,159.959045 498.853180,159.959045 492.109253,159.959045 
	C489.774780,170.765915 487.237457,181.502350 485.224274,192.336182 
	C484.437531,196.569885 487.247559,198.997086 491.430725,198.860306 
	C495.013367,198.743179 498.572571,197.909927 502.686462,197.314636 
	C501.819794,201.057343 501.056519,204.852478 499.994690,208.562134 
	C499.751617,209.411270 498.558807,210.433823 497.669281,210.584000 
	C488.452057,212.140167 479.213654,213.382492 469.870911,209.323090 
z"/>
<path fill="#2A2A2A" opacity="1.000000" stroke="none" 
	d="
M626.978394,154.975250 
	C632.697327,152.507584 638.319519,149.766495 644.178467,147.694763 
	C646.857910,146.747284 650.003479,147.118073 653.666748,146.834579 
	C652.062134,153.992996 650.627808,160.391968 649.373779,165.986511 
	C641.878296,166.372467 634.987061,166.690506 628.101074,167.096954 
	C624.505127,167.309204 622.794373,169.186508 622.021606,172.880127 
	C619.446228,185.188110 616.469299,197.412079 613.612305,209.815887 
	C606.934570,209.815887 600.496399,209.815887 593.425110,209.815887 
	C598.267090,188.796997 603.054443,168.015457 607.860413,147.153290 
	C614.628052,147.153290 621.076416,147.153290 627.928650,147.153290 
	C627.444641,149.658936 626.989380,152.015625 626.609497,154.584900 
	C626.608582,155.061691 626.532227,155.325928 626.455933,155.590149 
	C626.630066,155.385178 626.804260,155.180222 626.978394,154.975250 
z"/>
<path fill="#2A2A2A" opacity="1.000000" stroke="none" 
	d="
M435.978180,154.975235 
	C441.697083,152.507584 447.319305,149.766541 453.178223,147.694824 
	C455.857666,146.747360 459.003235,147.118042 462.666595,146.834488 
	C461.061951,153.993393 459.627625,160.392517 458.373779,165.986496 
	C450.878571,166.372421 443.987366,166.690414 437.101379,167.096909 
	C433.505737,167.309174 431.794434,169.186035 431.021576,172.879807 
	C428.446289,185.187836 425.469360,197.411819 422.612366,209.815796 
	C415.934784,209.815796 409.496643,209.815796 402.425323,209.815796 
	C407.267303,188.797134 412.054657,168.015656 416.860596,147.153397 
	C423.627960,147.153397 430.076263,147.153397 436.928558,147.153397 
	C436.444611,149.658798 435.989380,152.015457 435.609497,154.584763 
	C435.608459,155.061661 435.532135,155.325928 435.455811,155.590179 
	C435.629913,155.385193 435.804047,155.180206 435.978180,154.975235 
z"/>
<path fill="#FAFAFA" opacity="1.000000" stroke="none" 
	d="
M213.889130,78.100296 
	C220.407669,79.117859 226.666382,79.456718 232.428650,81.325989 
	C239.214600,83.527336 240.980194,89.111572 236.662720,94.752823 
	C232.877289,99.698929 228.268585,104.279648 223.249878,107.969498 
	C205.389984,121.100502 185.177475,129.780151 164.519760,137.375183 
	C135.839737,147.919678 106.530708,156.189133 75.906624,158.360397 
	C66.878159,159.000519 57.535061,158.549850 48.643566,156.920975 
	C37.737873,154.923126 35.848072,147.768295 42.945805,139.172760 
	C44.319736,137.508896 45.798828,135.890884 47.433247,134.489441 
	C63.420406,120.781181 82.295708,112.276878 102.737503,103.596764 
	C91.495613,120.622299 81.036629,136.462158 70.577637,152.302017 
	C70.825020,152.854507 71.072395,153.406998 71.319778,153.959488 
	C85.178772,151.625092 99.051651,149.366348 112.873871,146.831436 
	C114.161621,146.595261 115.328072,144.742935 116.213211,143.415817 
	C123.880348,131.920197 131.466232,120.370384 139.088150,108.844551 
	C139.980698,107.494850 140.944992,106.192589 142.331879,104.219994 
	C146.661758,114.723297 150.734848,124.603714 155.106277,135.207809 
	C166.602234,130.600250 177.754150,126.130585 189.216690,121.536423 
	C183.833420,108.337959 178.759628,95.898315 173.407471,82.776131 
	C186.753006,79.740570 199.971390,78.099976 213.889130,78.100296 
z"/>
<path fill="#FBFBFB" opacity="1.000000" stroke="none" 
	d="
M286.981995,196.250000 
	C281.161346,198.682159 275.706970,198.539429 269.719482,196.269257 
	C272.143097,185.872223 273.827301,175.341461 277.231293,165.399551 
	C279.007721,160.211380 285.346924,159.984802 290.567139,160.053543 
	C294.643829,160.107208 297.791382,161.904297 298.744446,165.988754 
	C300.666565,174.226288 298.479614,190.687393 286.981995,196.250000 
z"/>
<path fill="#FAFAFA" opacity="1.000000" stroke="none" 
	d="
M701.714905,166.308762 
	C700.895752,167.813644 700.081787,169.831787 699.209106,169.857513 
	C691.000427,170.099609 682.781799,170.001358 674.416138,170.001358 
	C677.810974,160.712723 686.106445,156.119156 694.917969,158.342789 
	C698.851013,159.335327 701.256165,161.745987 701.714905,166.308762 
z"/>
<path fill="#FAFAFA" opacity="1.000000" stroke="none" 
	d="
M357.608948,160.358063 
	C361.443634,159.447769 364.964142,158.162521 368.480835,158.172882 
	C375.377441,158.193207 378.298035,162.249435 377.191254,169.661560 
	C368.394318,169.661560 359.533142,169.661560 349.169250,169.661560 
	C352.250336,166.212997 354.771698,163.390884 357.608948,160.358063 
z"/>
<path fill="#FEFEFE" opacity="1.000000" stroke="none" 
	d="
M627.001343,155.005249 
	C626.804260,155.180222 626.630066,155.385178 626.455933,155.590149 
	C626.532227,155.325928 626.608582,155.061691 626.873657,154.948990 
	C627.062439,155.100510 627.024292,155.035248 627.001343,155.005249 
z"/>
<path fill="#FEFEFE" opacity="1.000000" stroke="none" 
	d="
M436.001160,155.005219 
	C435.804047,155.180206 435.629913,155.385193 435.455811,155.590179 
	C435.532135,155.325928 435.608459,155.061661 435.873505,154.948929 
	C436.062225,155.100464 436.024139,155.035202 436.001160,155.005219 
z"/>
</svg>